{"title":"Girls In Uniform / Madchen in Uniform (1958) 720p Lesbian Drama","uid":13527234,"size":3505628567,"categoryP":"video","categoryS":"hd___movies","magnet":"?xt=urn:btih:57727fc73a95c9f3d56b0b3235e1979046ce061a&amp;dn=Girls+In+Uniform+%2F+Madchen+in+Uniform+%281958%29+720p+Lesbian+Drama&amp;tr=udp%3A%2F%2Ftracker.leechers-paradise.org%3A6969&amp;tr=udp%3A%2F%2Fzer0day.ch%3A1337&amp;tr=udp%3A%2F%2Fopen.demonii.com%3A1337&amp;tr=udp%3A%2F%2Ftracker.coppersurfer.tk%3A6969&amp;tr=udp%3A%2F%2Fexodus.desync.com%3A6969","seeders":2,"leechers":2,"uploader":"brablay","files":1,"time":1455393934,"description":"Movie Info:\r\nAfter the death of her parents young girl Manuela von Meinhardis is sent to a boarding school where Prussian drill rules the education. Desperately seeking love and warmth in Manuela's heart special emotions for the only human lady teacher, Fraeulein von Bernburg, start growing. Manuela falls in love with her. It's just a matter of time until that forbidden love becomes known what immediatly leads to desaster. Though Elisabeth von Bernburg has never returned the love she is forced to leave the school; Manuela gets a severe punishment, like someone who has committed a crime.\r\n\r\nAlso known as: Jeunes filles en uniforme, Meisjes in uniform, Senhoritas de Uniforme, Corrupción en el internado, Tyttöjä murrosiässä, Jeunes filles en uniforme, Parthenes me stoli, Lányok egyenruhában, Ragazze in uniforme, Internado de señoritas, Dziewczeta w mundurkach, Raparigas de Uniforme, Farlig böjelse, Девушки в униформе, Muchachas de uniforme.\r\n\r\nInfo:\r\n\r\n[mediainfo]\r\nVideo\r\nID : 1\r\nFormat : AVC\r\nFormat/Info : Advanced Video Codec\r\nFormat profile :   \r\nFormat settings, CABAC : Yes\r\nFormat settings, ReFrames : 4 frames\r\nCodec ID : V_MPEG4/ISO/AVC\r\nDuration : 1h 30mn\r\nBit rate : 4 719 Kbps\r\nWidth : 1 280 pixels\r\nHeight : 720 pixels\r\nDisplay aspect ratio : 16:9\r\nFrame rate mode : Constant\r\nFrame rate : 50.000 fps\r\nColor space : YUV\r\nChroma subsampling : 4:2:0\r\nBit depth : 8 bits\r\nScan type : Progressive\r\nBits/(Pixel*Frame) : 0.102\r\nStream size : 2.98 GiB (91%)\r\nDefault : Yes\r\nForced : No\r\n\r\nAudio\r\nID : 2\r\nFormat : AC-3\r\nFormat/Info : Audio Coding 3\r\nMode extension : CM (complete main)\r\nFormat settings, Endianness : Big\r\nCodec ID : A_AC3\r\nDuration : 1h 30mn\r\nBit rate mode : Constant\r\nBit rate : 448 Kbps\r\nChannel(s) : 2 channels\r\nChannel positions : Front: L R\r\nSampling rate : 48.0 KHz\r\nFrame rate : 31.250 fps (1536 spf)\r\nCompression mode : Lossy\r\nStream size : 290 MiB (9%)\r\nLanguage : German\r\nDefault : No\r\nForced : No\r\n\r\nText #1\r\nID : 3\r\nFormat : UTF-8\r\nCodec ID : S_TEXT/UTF8\r\nCodec ID/Info : UTF-8 Plain Text\r\nDuration : 1h 29mn\r\nBit rate : 50 bps\r\nCount of elements : 910\r\nStream size : 32.7 KiB (0%)\r\nLanguage : English\r\nDefault : Yes\r\nForced : No\r\n\r\nText #2\r\nID : 4\r\nFormat : UTF-8\r\nCodec ID : S_TEXT/UTF8\r\nCodec ID/Info : UTF-8 Plain Text\r\nDuration : 1h 29mn\r\nBit rate : 54 bps\r\nCount of elements : 910\r\nStream size : 35.7 KiB (0%)\r\nLanguage : Dutch\r\nDefault : No\r\nForced : No\r\n\r\nText #3\r\nID : 5\r\nFormat : UTF-8\r\nCodec ID : S_TEXT/UTF8\r\nCodec ID/Info : UTF-8 Plain Text\r\nDuration : 1h 29mn\r\nBit rate : 94 bps\r\nCount of elements : 911\r\nStream size : 61.7 KiB (0%)\r\nLanguage : Russian\r\nDefault : No\r\nForced : No\r\n\r\nText #4\r\nID : 6\r\nFormat : UTF-8\r\nCodec ID : S_TEXT/UTF8\r\nCodec ID/Info : UTF-8 Plain Text\r\nDuration : 1h 29mn\r\nBit rate : 54 bps\r\nCount of elements : 803\r\nStream size : 35.8 KiB (0%)\r\nLanguage : German\r\nDefault : No\r\nForced : No\r\n\r\nMenu\r\n00:00:00.000 : en:Chapter 1\r\n00:08:08.520 : en:Chapter 2\r\n00:16:49.920 : en:Chapter 3\r\n00:31:23.520 : en:Chapter 4\r\n00:37:09.720 : en:Chapter 5\r\n00:43:49.200 : en:Chapter 6\r\n00:54:16.440 : en:Chapter 7\r\n01:01:42.360 : en:Chapter 8\r\n01:06:35.640 : en:Chapter 9\r\n01:15:43.800 : en:Chapter 10\r\n01:23:53.520 : en:Chapter 11\r\n01:27:53.880 : en:Chapter 12\r\n\r\n[/mediainfo]","torrent":{"xt":"urn:btih:57727fc73a95c9f3d56b0b3235e1979046ce061a","amp;dn":"Girls+In+Uniform+%2F+Madchen+in+Uniform+%281958%29+720p+Lesbian+Drama","amp;tr":["udp%3A%2F%2Ftracker.leechers-paradise.org%3A6969","udp%3A%2F%2Fzer0day.ch%3A1337","udp%3A%2F%2Fopen.demonii.com%3A1337","udp%3A%2F%2Ftracker.coppersurfer.tk%3A6969","udp%3A%2F%2Fexodus.desync.com%3A6969"],"infoHash":"57727fc73a95c9f3d56b0b3235e1979046ce061a","infoHashBuffer":{"type":"Buffer","data":[87,114,127,199,58,149,201,243,213,107,11,50,53,225,151,144,70,206,6,26]},"announce":[],"urlList":[]}}